<svg viewBox="0 0 100 94.3" id="two-location-pins-ico" width="100%" height="100%"> <g> <path d="M31.6,34.5c-4.7,0-8.5,3.8-8.5,8.5c0,4.7,3.8,8.5,8.5,8.5c4.7,0,8.5-3.8,8.5-8.5C40.2,38.4,36.3,34.5,31.6,34.5L31.6,34.5z
		 M31.6,34.5"></path> <path d="M31.6,11.9C14.2,11.9,0,26,0,43.5c0,7.4,2.5,14.2,6.8,19.6l24.8,31.2l24.8-31.2c4.3-5.4,6.8-12.2,6.8-19.6
		C63.2,26,49.1,11.9,31.6,11.9L31.6,11.9z M31.6,57.3c-7.8,0-14.2-6.4-14.2-14.2c0-7.8,6.4-14.2,14.2-14.2c7.8,0,14.2,6.4,14.2,14.2
		C45.9,50.9,39.5,57.3,31.6,57.3L31.6,57.3z M31.6,57.3"></path> </g> <g> <path d="M74.4,18.3c-3.8,0-6.9,3.1-6.9,6.9c0,3.8,3.1,6.9,6.9,6.9c3.8,0,6.9-3.1,6.9-6.9C81.3,21.4,78.2,18.3,74.4,18.3L74.4,18.3z
		 M74.4,18.3"></path> <path d="M74.4,0C60.3,0,48.8,11.5,48.8,25.6c0,6,2.1,11.5,5.5,15.8l20.1,25.2l20.1-25.2c3.4-4.4,5.5-9.9,5.5-15.8
		C100,11.5,88.5,0,74.4,0L74.4,0z M74.4,36.8c-6.3,0-11.5-5.2-11.5-11.5c0-6.3,5.2-11.5,11.5-11.5c6.3,0,11.5,5.2,11.5,11.5
		C85.9,31.6,80.8,36.8,74.4,36.8L74.4,36.8z M74.4,36.8"></path> </g> </svg>